<?xml version="1.0" encoding="UTF-8"?>
<!DOCTYPE svg PUBLIC "-//W3C//DTD SVG 1.1//EN" "http://www.w3.org/Graphics/SVG/1.1/DTD/svg11.dtd">
<svg width="160mm" height="90mm" viewBox="0 0 16000 9000" version="1.1" baseProfile="tiny" xmlns="http://www.w3.org/2000/svg" stroke-width="28.222" stroke-linejoin="round" xml:space="preserve">
 <path fill="rgb(255,255,255)" stroke="none" d="M 8000,8998 L 0,8998 0,0 15999,0 15999,8998 8000,8998 Z"/>
 <path fill="none" stroke="rgb(179,179,179)" stroke-linejoin="round" d="M 8148,7676 L 1400,7676 1400,420 14897,420 14897,7676 8148,7676 Z"/>
 <path fill="none" stroke="rgb(179,179,179)" stroke-linejoin="round" d="M 14897,7675 L 1400,7675"/>
 <path fill="none" stroke="rgb(179,179,179)" stroke-linejoin="round" d="M 14897,6767 L 1400,6767"/>
 <path fill="none" stroke="rgb(179,179,179)" stroke-linejoin="round" d="M 14897,5861 L 1400,5861"/>
 <path fill="none" stroke="rgb(179,179,179)" stroke-linejoin="round" d="M 14897,4954 L 1400,4954"/>
 <path fill="none" stroke="rgb(179,179,179)" stroke-linejoin="round" d="M 14897,4047 L 1400,4047"/>
 <path fill="none" stroke="rgb(179,179,179)" stroke-linejoin="round" d="M 14897,3139 L 1400,3139"/>
 <path fill="none" stroke="rgb(179,179,179)" stroke-linejoin="round" d="M 14897,2233 L 1400,2233"/>
 <path fill="none" stroke="rgb(179,179,179)" stroke-linejoin="round" d="M 14897,1326 L 1400,1326"/>
 <path fill="none" stroke="rgb(179,179,179)" stroke-linejoin="round" d="M 14897,419 L 1400,419"/>
 <path fill="none" stroke="rgb(179,179,179)" stroke-linejoin="round" d="M 1400,7825 L 1400,7675"/>
 <path fill="none" stroke="rgb(179,179,179)" stroke-linejoin="round" d="M 1400,7825 L 1400,7675"/>
 <path fill="none" stroke="rgb(179,179,179)" stroke-linejoin="round" d="M 3649,7825 L 3649,7675"/>
 <path fill="none" stroke="rgb(179,179,179)" stroke-linejoin="round" d="M 3649,7825 L 3649,7675"/>
 <path fill="none" stroke="rgb(179,179,179)" stroke-linejoin="round" d="M 5899,7825 L 5899,7675"/>
 <path fill="none" stroke="rgb(179,179,179)" stroke-linejoin="round" d="M 5899,7825 L 5899,7675"/>
 <path fill="none" stroke="rgb(179,179,179)" stroke-linejoin="round" d="M 8148,7825 L 8148,7675"/>
 <path fill="none" stroke="rgb(179,179,179)" stroke-linejoin="round" d="M 8148,7825 L 8148,7675"/>
 <path fill="none" stroke="rgb(179,179,179)" stroke-linejoin="round" d="M 10397,7825 L 10397,7675"/>
 <path fill="none" stroke="rgb(179,179,179)" stroke-linejoin="round" d="M 10397,7825 L 10397,7675"/>
 <path fill="none" stroke="rgb(179,179,179)" stroke-linejoin="round" d="M 12647,7825 L 12647,7675"/>
 <path fill="none" stroke="rgb(179,179,179)" stroke-linejoin="round" d="M 12647,7825 L 12647,7675"/>
 <path fill="none" stroke="rgb(179,179,179)" stroke-linejoin="round" d="M 14897,7825 L 14897,7675"/>
 <path fill="none" stroke="rgb(179,179,179)" stroke-linejoin="round" d="M 14897,7825 L 14897,7675"/>
 <path fill="none" stroke="rgb(179,179,179)" stroke-linejoin="round" d="M 1400,7675 L 14897,7675"/>
 <path fill="none" stroke="rgb(179,179,179)" stroke-linejoin="round" d="M 1250,7675 L 1400,7675"/>
 <path fill="none" stroke="rgb(179,179,179)" stroke-linejoin="round" d="M 1250,7675 L 1400,7675"/>
 <path fill="none" stroke="rgb(179,179,179)" stroke-linejoin="round" d="M 1250,6767 L 1400,6767"/>
 <path fill="none" stroke="rgb(179,179,179)" stroke-linejoin="round" d="M 1250,6767 L 1400,6767"/>
 <path fill="none" stroke="rgb(179,179,179)" stroke-linejoin="round" d="M 1250,5861 L 1400,5861"/>
 <path fill="none" stroke="rgb(179,179,179)" stroke-linejoin="round" d="M 1250,5861 L 1400,5861"/>
 <path fill="none" stroke="rgb(179,179,179)" stroke-linejoin="round" d="M 1250,4954 L 1400,4954"/>
 <path fill="none" stroke="rgb(179,179,179)" stroke-linejoin="round" d="M 1250,4954 L 1400,4954"/>
 <path fill="none" stroke="rgb(179,179,179)" stroke-linejoin="round" d="M 1250,4047 L 1400,4047"/>
 <path fill="none" stroke="rgb(179,179,179)" stroke-linejoin="round" d="M 1250,4047 L 1400,4047"/>
 <path fill="none" stroke="rgb(179,179,179)" stroke-linejoin="round" d="M 1250,3139 L 1400,3139"/>
 <path fill="none" stroke="rgb(179,179,179)" stroke-linejoin="round" d="M 1250,3139 L 1400,3139"/>
 <path fill="none" stroke="rgb(179,179,179)" stroke-linejoin="round" d="M 1250,2233 L 1400,2233"/>
 <path fill="none" stroke="rgb(179,179,179)" stroke-linejoin="round" d="M 1250,2233 L 1400,2233"/>
 <path fill="none" stroke="rgb(179,179,179)" stroke-linejoin="round" d="M 1250,1326 L 1400,1326"/>
 <path fill="none" stroke="rgb(179,179,179)" stroke-linejoin="round" d="M 1250,1326 L 1400,1326"/>
 <path fill="none" stroke="rgb(179,179,179)" stroke-linejoin="round" d="M 1250,419 L 1400,419"/>
 <path fill="none" stroke="rgb(179,179,179)" stroke-linejoin="round" d="M 1250,419 L 1400,419"/>
 <path fill="none" stroke="rgb(179,179,179)" stroke-linejoin="round" d="M 1400,7675 L 1400,419"/>
 <path fill="none" stroke="rgb(0,69,134)" stroke-width="80" stroke-linejoin="round" d="M 1400,7536 L 1421,7536 1443,7523 1465,7507 1487,7489 1509,7491 1531,7459 1553,7392 1575,7407 1597,7380 1619,7390 1641,7394 1663,7294 1685,7365 1707,7311 1729,7245 1751,7233 1773,7103 1795,6935 1817,6755 1839,6466 1861,5764 1883,3376 1905,1108 1927,5161 1949,6197 1971,6669 1993,6980 2015,7056 2037,7157 2059,7161 2081,7305 2103,7292 2124,7375 2146,7342 2168,7331 2190,7428 2212,7458 2234,7455 2256,7405 2278,7439 2300,7437 2322,7547 2344,7542 2366,7373 2388,7482 2410,7473 2432,7532 2454,7537 2476,7495 2498,7521 2520,7528 2542,7501 2564,7496 2586,7495 2608,7516 2630,7491 2652,7552 2674,7547 2696,7516 2718,7544 2740,7604 2762,7557 2784,7539 2806,7579 2828,7557 2849,7520 2871,7368 2893,7278 2915,7530 2937,7559 2959,7574 2981,7615 3003,7635 3025,7600 3047,7639 3069,7620 3091,7606 3113,7542 3135,7568 3157,7575 3179,7515 3201,7448 3223,7284 3245,6414 3267,7384 3289,7459 3311,7571 3333,7563 3355,7547 3377,7473 3399,7600 3421,7611 3443,7556 3465,7581 3487,7624 3509,7606 3531,7619 3553,7615 3574,7576 3596,7575 3618,7569 3640,7604 3662,7625 3684,7587 3706,7525 3728,7558 3750,7657 3772,7634 3794,7666 3816,7637 3838,7654 3860,7589 3882,7555 3904,7609 3926,7639 3948,7593 3970,7621 3992,7606 4014,7669 4036,7617 4058,7643 4080,7618 4102,7581 4124,7660 4146,7618 4168,7657 4190,7553 4212,7671 4234,7601 4256,7579 4277,7601 4299,7605 4321,7610 4343,7607 4365,7601 4387,7560 4409,7592 4431,7624 4453,7622 4475,7587 4497,7611 4519,7582 4541,7641 4563,7625 4585,7585 4607,7645 4629,7603 4651,7624 4673,7569 4695,7656 4717,7575 4739,7653 4761,7644 4783,7641 4805,7616 4827,7593 4849,7634 4871,7603 4893,7613 4915,7585 4937,7588 4959,7637 4981,7615 5002,7585 5024,7605 5046,7599 5068,7645 5090,7579 5112,7660 5134,7563 5156,7624 5178,7585 5200,7630 5222,7572 5244,7558 5266,7612 5288,7580 5310,7550 5332,7588 5354,7559 5376,7181 5398,6998 5420,7272 5442,7536 5464,7578 5486,7630 5508,7612 5530,7613 5552,7615 5574,7612 5596,7597 5618,7611 5640,7665 5662,7620 5684,7643 5706,7657 5727,7648 5749,7630 5771,7630 5793,7625 5815,7596 5837,7505 5859,7627 5881,7548 5903,7591 5925,7557 5947,7530 5969,7653 5991,7617 6013,7628 6035,7595 6057,7652 6079,7596 6101,7581 6123,7632 6145,7608 6167,7592 6189,7637 6211,7599 6233,7626 6255,7621 6277,7560 6299,7659 6321,7656 6343,7608 6365,7574 6387,7584 6409,7650 6430,7641 6452,7607 6474,7652 6496,7660 6518,7586 6540,7608 6562,7632 6584,7617 6606,7642 6628,7585 6650,7623 6672,7631 6694,7621 6716,7585 6738,7642 6760,7598 6782,7586 6804,7634 6826,7613 6848,7597 6870,7653 6892,7603 6914,7623 6936,7616 6958,7657 6980,7611 7002,7622 7024,7599 7046,7622 7068,7611 7090,7657 7112,7616 7134,7623 7155,7603 7177,7653 7199,7597 7221,7613 7243,7634 7265,7586 7287,7598 7309,7642 7331,7585 7353,7621 7375,7631 7397,7623 7419,7585 7441,7642 7463,7617 7485,7632 7507,7608 7529,7586 7551,7660 7573,7652 7595,7607 7617,7641 7639,7650 7661,7584 7683,7574 7705,7608 7727,7656 7749,7659 7771,7560 7793,7621 7815,7626 7837,7599 7859,7637 7880,7592 7902,7608 7924,7632 7946,7581 7968,7596 7990,7652 8011,7595 8033,7628 8055,7617 8077,7653 8099,7530 8121,7557 8143,7591 8165,7548 8187,7627 8209,7505 8231,7596 8253,7625 8275,7630 8297,7630 8319,7648 8341,7657 8363,7643 8385,7620 8407,7665 8429,7611 8451,7597 8473,7612 8495,7615 8517,7613 8539,7612 8561,7630 8582,7578 8604,7536 8626,7272 8648,6998 8670,7181 8692,7559 8714,7588 8736,7550 8758,7580 8780,7612 8802,7558 8824,7572 8846,7630 8868,7585 8890,7624 8912,7563 8934,7660 8956,7579 8978,7645 9000,7599 9022,7605 9044,7585 9066,7615 9088,7637 9110,7588 9132,7585 9154,7613 9176,7603 9198,7634 9220,7593 9242,7616 9264,7641 9286,7644 9307,7653 9329,7575 9351,7656 9373,7569 9395,7624 9417,7603 9439,7645 9461,7585 9483,7625 9505,7641 9527,7582 9549,7611 9571,7587 9593,7622 9615,7624 9637,7592 9659,7560 9681,7601 9703,7607 9725,7610 9747,7605 9769,7601 9791,7579 9813,7601 9835,7671 9857,7553 9879,7657 9901,7618 9923,7660 9945,7581 9967,7618 9989,7643 10011,7617 10032,7669 10054,7606 10076,7621 10098,7593 10120,7639 10142,7609 10164,7555 10186,7589 10208,7654 10230,7637 10252,7666 10274,7634 10296,7657 10318,7558 10340,7525 10362,7587 10384,7625 10406,7604 10428,7569 10450,7575 10472,7576 10494,7615 10516,7619 10538,7606 10560,7624 10582,7581 10604,7556 10626,7611 10648,7600 10670,7473 10692,7547 10714,7563 10735,7571 10757,7459 10779,7384 10801,6414 10823,7284 10845,7448 10867,7515 10889,7575 10911,7568 10933,7542 10955,7606 10977,7620 10999,7639 11021,7600 11043,7635 11065,7615 11087,7574 11109,7559 11131,7530 11153,7278 11175,7368 11197,7520 11219,7557 11241,7579 11263,7539 11285,7557 11307,7604 11329,7544 11351,7516 11373,7547 11395,7552 11417,7491 11439,7516 11460,7495 11482,7496 11504,7501 11526,7528 11548,7521 11570,7495 11592,7537 11614,7532 11636,7473 11658,7482 11680,7373 11702,7542 11724,7547 11746,7437 11768,7439 11790,7405 11812,7455 11834,7458 11856,7428 11878,7331 11900,7342 11922,7375 11944,7292 11966,7305 11988,7161 12010,7157 12032,7056 12054,6980 12076,6669 12098,6197 12120,5161 12142,1108 12164,3376 12185,5764 12207,6466 12229,6755 12251,6935 12273,7103 12295,7233 12317,7245 12339,7311 12361,7365 12383,7294 12405,7394 12427,7390 12449,7380 12471,7407 12493,7392 12515,7459 12537,7491 12559,7489 12581,7507 12603,7523 12625,7536"/>
 <text class="TextShape"><tspan class="TextParagraph" font-family="Liberation Sans" font-size="353px" font-weight="400"><tspan class="TextPosition" x="1300" y="8256"><tspan fill="rgb(0,0,0)" stroke="none">0</tspan></tspan></tspan></text>
 <text class="TextShape"><tspan class="TextParagraph" font-family="Liberation Sans" font-size="353px" font-weight="400"><tspan class="TextPosition" x="3450" y="8256"><tspan fill="rgb(0,0,0)" stroke="none">10</tspan></tspan></tspan></text>
 <text class="TextShape"><tspan class="TextParagraph" font-family="Liberation Sans" font-size="353px" font-weight="400"><tspan class="TextPosition" x="5700" y="8256"><tspan fill="rgb(0,0,0)" stroke="none">20</tspan></tspan></tspan></text>
 <text class="TextShape"><tspan class="TextParagraph" font-family="Liberation Sans" font-size="353px" font-weight="400"><tspan class="TextPosition" x="7950" y="8256"><tspan fill="rgb(0,0,0)" stroke="none">30</tspan></tspan></tspan></text>
 <text class="TextShape"><tspan class="TextParagraph" font-family="Liberation Sans" font-size="353px" font-weight="400"><tspan class="TextPosition" x="10199" y="8256"><tspan fill="rgb(0,0,0)" stroke="none">40</tspan></tspan></tspan></text>
 <text class="TextShape"><tspan class="TextParagraph" font-family="Liberation Sans" font-size="353px" font-weight="400"><tspan class="TextPosition" x="12449" y="8256"><tspan fill="rgb(0,0,0)" stroke="none">50</tspan></tspan></tspan></text>
 <text class="TextShape"><tspan class="TextParagraph" font-family="Liberation Sans" font-size="353px" font-weight="400"><tspan class="TextPosition" x="14699" y="8256"><tspan fill="rgb(0,0,0)" stroke="none">60</tspan></tspan></tspan></text>
 <text class="TextShape"><tspan class="TextParagraph" font-family="Liberation Sans" font-size="353px" font-weight="400"><tspan class="TextPosition" x="951" y="7797"><tspan fill="rgb(0,0,0)" stroke="none">0</tspan></tspan></tspan></text>
 <text class="TextShape"><tspan class="TextParagraph" font-family="Liberation Sans" font-size="353px" font-weight="400"><tspan class="TextPosition" x="664" y="6889"><tspan fill="rgb(0,0,0)" stroke="none">0,5</tspan></tspan></tspan></text>
 <text class="TextShape"><tspan class="TextParagraph" font-family="Liberation Sans" font-size="353px" font-weight="400"><tspan class="TextPosition" x="951" y="5982"><tspan fill="rgb(0,0,0)" stroke="none">1</tspan></tspan></tspan></text>
 <text class="TextShape"><tspan class="TextParagraph" font-family="Liberation Sans" font-size="353px" font-weight="400"><tspan class="TextPosition" x="664" y="5075"><tspan fill="rgb(0,0,0)" stroke="none">1,5</tspan></tspan></tspan></text>
 <text class="TextShape"><tspan class="TextParagraph" font-family="Liberation Sans" font-size="353px" font-weight="400"><tspan class="TextPosition" x="951" y="4169"><tspan fill="rgb(0,0,0)" stroke="none">2</tspan></tspan></tspan></text>
 <text class="TextShape"><tspan class="TextParagraph" font-family="Liberation Sans" font-size="353px" font-weight="400"><tspan class="TextPosition" x="664" y="3261"><tspan fill="rgb(0,0,0)" stroke="none">2,5</tspan></tspan></tspan></text>
 <text class="TextShape"><tspan class="TextParagraph" font-family="Liberation Sans" font-size="353px" font-weight="400"><tspan class="TextPosition" x="951" y="2354"><tspan fill="rgb(0,0,0)" stroke="none">3</tspan></tspan></tspan></text>
 <text class="TextShape"><tspan class="TextParagraph" font-family="Liberation Sans" font-size="353px" font-weight="400"><tspan class="TextPosition" x="664" y="1447"><tspan fill="rgb(0,0,0)" stroke="none">3,5</tspan></tspan></tspan></text>
 <text class="TextShape"><tspan class="TextParagraph" font-family="Liberation Sans" font-size="353px" font-weight="400"><tspan class="TextPosition" x="951" y="540"><tspan fill="rgb(0,0,0)" stroke="none">4</tspan></tspan></tspan></text>
 <text class="TextShape"><tspan class="TextParagraph" font-family="Liberation Sans" font-size="459px" font-weight="400"><tspan class="TextPosition" x="6288" y="895"><tspan fill="rgb(0,0,0)" stroke="none">50Hz, 512 valus</tspan></tspan></tspan></text>
 <text class="TextShape"><tspan class="TextParagraph" font-family="Liberation Sans" font-size="318px" font-weight="400"><tspan class="TextPosition" x="7185" y="8838"><tspan fill="rgb(0,0,0)" stroke="none">frequency</tspan></tspan></tspan></text>
 <text class="TextShape"><tspan class="TextParagraph" font-family="Liberation Sans" font-size="318px" font-weight="400"><tspan class="TextPosition" x="383" y="5016" transform="translate(383,5016) rotate(-90) translate(-383,-5016)"><tspan fill="rgb(0,0,0)" stroke="none">magnitude</tspan></tspan></tspan></text>
</svg>