<?xml version="1.0" encoding="UTF-8"?>
<!DOCTYPE svg PUBLIC "-//W3C//DTD SVG 1.1//EN" "http://www.w3.org/Graphics/SVG/1.1/DTD/svg11.dtd">
<svg width="160mm" height="90mm" viewBox="0 0 16000 9000" version="1.1" baseProfile="tiny" xmlns="http://www.w3.org/2000/svg" stroke-width="28.222" stroke-linejoin="round" xml:space="preserve">
 <path fill="rgb(255,255,255)" stroke="none" d="M 8000,8999 L 0,8999 0,0 15999,0 15999,8999 8000,8999 Z"/>
 <path fill="none" stroke="rgb(179,179,179)" stroke-linejoin="round" d="M 8621,7185 L 1764,7185 1764,1536 15478,1536 15478,7185 8621,7185 Z"/>
 <path fill="none" stroke="rgb(179,179,179)" stroke-linejoin="round" d="M 15478,7184 L 1764,7184"/>
 <path fill="none" stroke="rgb(179,179,179)" stroke-linejoin="round" d="M 15478,6376 L 1764,6376"/>
 <path fill="none" stroke="rgb(179,179,179)" stroke-linejoin="round" d="M 15478,5569 L 1764,5569"/>
 <path fill="none" stroke="rgb(179,179,179)" stroke-linejoin="round" d="M 15478,4762 L 1764,4762"/>
 <path fill="none" stroke="rgb(179,179,179)" stroke-linejoin="round" d="M 15478,3956 L 1764,3956"/>
 <path fill="none" stroke="rgb(179,179,179)" stroke-linejoin="round" d="M 15478,3149 L 1764,3149"/>
 <path fill="none" stroke="rgb(179,179,179)" stroke-linejoin="round" d="M 15478,2342 L 1764,2342"/>
 <path fill="none" stroke="rgb(179,179,179)" stroke-linejoin="round" d="M 15478,1535 L 1764,1535"/>
 <path fill="none" stroke="rgb(179,179,179)" stroke-linejoin="round" d="M 1764,7334 L 1764,7184"/>
 <path fill="none" stroke="rgb(179,179,179)" stroke-linejoin="round" d="M 1764,7334 L 1764,7184"/>
 <path fill="none" stroke="rgb(179,179,179)" stroke-linejoin="round" d="M 3287,7334 L 3287,7184"/>
 <path fill="none" stroke="rgb(179,179,179)" stroke-linejoin="round" d="M 3287,7334 L 3287,7184"/>
 <path fill="none" stroke="rgb(179,179,179)" stroke-linejoin="round" d="M 4811,7334 L 4811,7184"/>
 <path fill="none" stroke="rgb(179,179,179)" stroke-linejoin="round" d="M 4811,7334 L 4811,7184"/>
 <path fill="none" stroke="rgb(179,179,179)" stroke-linejoin="round" d="M 6335,7334 L 6335,7184"/>
 <path fill="none" stroke="rgb(179,179,179)" stroke-linejoin="round" d="M 6335,7334 L 6335,7184"/>
 <path fill="none" stroke="rgb(179,179,179)" stroke-linejoin="round" d="M 7859,7334 L 7859,7184"/>
 <path fill="none" stroke="rgb(179,179,179)" stroke-linejoin="round" d="M 7859,7334 L 7859,7184"/>
 <path fill="none" stroke="rgb(179,179,179)" stroke-linejoin="round" d="M 9382,7334 L 9382,7184"/>
 <path fill="none" stroke="rgb(179,179,179)" stroke-linejoin="round" d="M 9382,7334 L 9382,7184"/>
 <path fill="none" stroke="rgb(179,179,179)" stroke-linejoin="round" d="M 10906,7334 L 10906,7184"/>
 <path fill="none" stroke="rgb(179,179,179)" stroke-linejoin="round" d="M 10906,7334 L 10906,7184"/>
 <path fill="none" stroke="rgb(179,179,179)" stroke-linejoin="round" d="M 12430,7334 L 12430,7184"/>
 <path fill="none" stroke="rgb(179,179,179)" stroke-linejoin="round" d="M 12430,7334 L 12430,7184"/>
 <path fill="none" stroke="rgb(179,179,179)" stroke-linejoin="round" d="M 13954,7334 L 13954,7184"/>
 <path fill="none" stroke="rgb(179,179,179)" stroke-linejoin="round" d="M 13954,7334 L 13954,7184"/>
 <path fill="none" stroke="rgb(179,179,179)" stroke-linejoin="round" d="M 15478,7334 L 15478,7184"/>
 <path fill="none" stroke="rgb(179,179,179)" stroke-linejoin="round" d="M 15478,7334 L 15478,7184"/>
 <path fill="none" stroke="rgb(179,179,179)" stroke-linejoin="round" d="M 1764,7184 L 15478,7184"/>
 <path fill="none" stroke="rgb(179,179,179)" stroke-linejoin="round" d="M 1614,7184 L 1764,7184"/>
 <path fill="none" stroke="rgb(179,179,179)" stroke-linejoin="round" d="M 1614,7184 L 1764,7184"/>
 <path fill="none" stroke="rgb(179,179,179)" stroke-linejoin="round" d="M 1614,6376 L 1764,6376"/>
 <path fill="none" stroke="rgb(179,179,179)" stroke-linejoin="round" d="M 1614,6376 L 1764,6376"/>
 <path fill="none" stroke="rgb(179,179,179)" stroke-linejoin="round" d="M 1614,5569 L 1764,5569"/>
 <path fill="none" stroke="rgb(179,179,179)" stroke-linejoin="round" d="M 1614,5569 L 1764,5569"/>
 <path fill="none" stroke="rgb(179,179,179)" stroke-linejoin="round" d="M 1614,4762 L 1764,4762"/>
 <path fill="none" stroke="rgb(179,179,179)" stroke-linejoin="round" d="M 1614,4762 L 1764,4762"/>
 <path fill="none" stroke="rgb(179,179,179)" stroke-linejoin="round" d="M 1614,3956 L 1764,3956"/>
 <path fill="none" stroke="rgb(179,179,179)" stroke-linejoin="round" d="M 1614,3956 L 1764,3956"/>
 <path fill="none" stroke="rgb(179,179,179)" stroke-linejoin="round" d="M 1614,3149 L 1764,3149"/>
 <path fill="none" stroke="rgb(179,179,179)" stroke-linejoin="round" d="M 1614,3149 L 1764,3149"/>
 <path fill="none" stroke="rgb(179,179,179)" stroke-linejoin="round" d="M 1614,2342 L 1764,2342"/>
 <path fill="none" stroke="rgb(179,179,179)" stroke-linejoin="round" d="M 1614,2342 L 1764,2342"/>
 <path fill="none" stroke="rgb(179,179,179)" stroke-linejoin="round" d="M 1614,1535 L 1764,1535"/>
 <path fill="none" stroke="rgb(179,179,179)" stroke-linejoin="round" d="M 1614,1535 L 1764,1535"/>
 <path fill="none" stroke="rgb(179,179,179)" stroke-linejoin="round" d="M 1764,7184 L 1764,1535"/>
 <path fill="none" stroke="rgb(0,69,134)" stroke-width="80" stroke-linejoin="round" d="M 1764,7021 L 1786,7021 1809,7004 1832,7049 1855,7034 1878,7028 1901,7010 1924,7009 1947,6992 1970,6954 1992,6918 2015,6845 2038,6779 2061,6551 2084,6132 2107,2464 2130,5895 2153,6563 2176,6768 2199,6932 2221,6882 2244,6975 2267,7022 2290,7034 2313,7012 2336,7054 2359,7056 2382,7104 2405,7066 2427,7055 2450,6893 2473,7098 2496,7128 2519,7134 2542,7119 2565,7133 2588,7115 2611,7126 2634,7155 2656,7122 2679,7121 2702,7145 2725,7124 2748,7109 2771,7085 2794,6813 2817,6992 2840,7117 2862,7098 2885,7108 2908,7118 2931,7077 2954,7085 2977,7044 3000,6914 3023,6757 3046,6458 3069,6983 3091,7069 3114,7074 3137,7157 3160,7061 3183,7105 3206,7129 3229,7120 3252,7105 3275,7126 3297,7142 3320,7141 3343,7133 3366,7148 3389,7135 3412,7167 3435,7178 3458,7175 3481,7086 3504,7098 3526,7131 3549,7151 3572,7126 3595,7157 3618,7117 3641,7136 3664,7145 3687,7129 3710,7130 3732,7144 3755,7164 3778,7173 3801,7158 3824,7149 3847,7154 3870,7155 3893,7148 3916,7144 3939,7145 3961,7155 3984,7169 4007,7158 4030,7128 4053,7113 4076,7119 4099,7125 4122,7150 4145,7159 4167,7119 4190,7137 4213,7168 4236,7149 4259,7149 4282,7174 4305,7167 4328,7176 4351,7165 4374,7140 4396,7174 4419,7139 4442,7121 4465,7134 4488,7065 4511,7058 4534,6931 4557,7102 4580,7110 4602,7120 4625,7131 4648,7136 4671,7134 4694,7134 4717,7168 4740,7138 4763,7144 4786,7141 4809,7143 4831,7120 4854,7142 4877,7120 4900,7150 4923,7128 4946,7141 4969,7182 4992,7163 5015,7141 5037,7164 5060,7142 5083,7134 5106,7152 5129,7171 5152,7142 5175,7140 5198,7136 5221,7158 5244,7158 5266,7153 5289,7123 5312,7181 5335,7150 5358,7164 5381,7178 5404,7134 5427,7164 5450,7156 5472,7138 5495,7161 5518,7136 5541,7160 5564,7158 5587,7151 5610,7127 5633,7163 5656,7154 5679,7163 5701,7168 5724,7167 5747,7161 5770,7149 5793,7180 5816,7151 5839,7172 5862,7153 5885,7158 5907,7170 5930,7163 5953,7130 5976,7165 5999,7161 6022,7153 6045,7163 6068,7157 6091,7161 6114,7162 6136,7157 6159,7154 6182,7160 6205,7154 6228,7140 6251,7161 6274,7156 6297,7138 6320,7157 6342,7137 6365,7135 6388,7166 6411,7164 6434,7120 6457,7064 6480,7048 6503,7112 6526,7139 6549,7151 6571,7172 6594,7144 6617,7169 6640,7142 6663,7173 6686,7176 6709,7150 6732,7156 6755,7154 6777,7172 6800,7146 6823,7149 6846,7163 6869,7171 6892,7178 6915,7162 6938,7171 6961,7170 6984,7168 7006,7166 7029,7141 7052,7148 7075,7175 7098,7170 7121,7164 7144,7167 7167,7174 7190,7178 7213,7157 7235,7162 7258,7159 7281,7168 7304,7154 7327,7159 7350,7165 7373,7134 7396,7164 7419,7165 7441,7146 7464,7168 7487,7170 7510,7155 7533,7173 7556,7172 7579,7149 7602,7150 7625,7178 7648,7150 7670,7149 7693,7172 7716,7173 7739,7155 7762,7170 7785,7168 7808,7146 7831,7165 7854,7164 7876,7134 7899,7165 7922,7159 7945,7154 7968,7168 7991,7159 8013,7162 8036,7157 8059,7178 8082,7174 8104,7167 8127,7164 8150,7170 8173,7175 8196,7148 8219,7141 8242,7166 8265,7168 8288,7170 8310,7171 8333,7162 8356,7178 8379,7171 8402,7163 8425,7149 8448,7146 8471,7172 8494,7154 8517,7156 8539,7150 8562,7176 8585,7173 8608,7142 8631,7169 8654,7144 8677,7172 8700,7151 8723,7139 8745,7112 8768,7048 8791,7064 8814,7120 8837,7164 8860,7166 8883,7135 8906,7137 8929,7157 8952,7138 8974,7156 8997,7161 9020,7140 9043,7154 9066,7160 9089,7154 9112,7157 9135,7162 9158,7161 9180,7157 9203,7163 9226,7153 9249,7161 9272,7165 9295,7130 9318,7163 9341,7170 9364,7158 9387,7153 9409,7172 9432,7151 9455,7180 9478,7149 9501,7161 9524,7167 9547,7168 9570,7163 9593,7154 9615,7163 9638,7127 9661,7151 9684,7158 9707,7160 9730,7136 9753,7161 9776,7138 9799,7156 9822,7164 9844,7134 9867,7178 9890,7164 9913,7150 9936,7181 9959,7123 9982,7153 10005,7158 10028,7158 10050,7136 10073,7140 10096,7142 10119,7171 10142,7152 10165,7134 10188,7142 10211,7164 10234,7141 10257,7163 10279,7182 10302,7141 10325,7128 10348,7150 10371,7120 10394,7142 10417,7120 10440,7143 10463,7141 10485,7144 10508,7138 10531,7168 10554,7134 10577,7134 10600,7136 10623,7131 10646,7120 10669,7110 10692,7102 10714,6931 10737,7058 10760,7065 10783,7134 10806,7121 10829,7139 10852,7174 10875,7140 10898,7165 10920,7176 10943,7167 10966,7174 10989,7149 11012,7149 11035,7168 11058,7137 11081,7119 11104,7159 11127,7150 11149,7125 11172,7119 11195,7113 11218,7128 11241,7158 11264,7169 11287,7155 11310,7145 11333,7144 11355,7148 11378,7155 11401,7154 11424,7149 11447,7158 11470,7173 11493,7164 11516,7144 11539,7130 11562,7129 11584,7145 11607,7136 11630,7117 11653,7157 11676,7126 11699,7151 11722,7131 11745,7098 11768,7086 11790,7175 11813,7178 11836,7167 11859,7135 11882,7148 11905,7133 11928,7141 11951,7142 11974,7126 11997,7105 12019,7120 12042,7129 12065,7105 12088,7061 12111,7157 12134,7074 12157,7069 12180,6983 12203,6458 12225,6757 12248,6914 12271,7044 12294,7085 12317,7077 12340,7118 12363,7108 12386,7098 12409,7117 12432,6992 12454,6813 12477,7085 12500,7109 12523,7124 12546,7145 12569,7121 12592,7122 12615,7155 12638,7126 12661,7115 12683,7133 12706,7119 12729,7134 12752,7128 12775,7098 12798,6893 12821,7055 12844,7066 12867,7104 12889,7056 12912,7054 12935,7012 12958,7034 12981,7022 13004,6975 13027,6882 13050,6932 13073,6768 13096,6563 13118,5895 13141,2464 13164,6132 13187,6551 13210,6779 13233,6845 13256,6918 13279,6954 13302,6992 13324,7009 13347,7010 13370,7028 13393,7034 13416,7049 13439,7004 13462,7021"/>
 <text class="TextShape"><tspan class="TextParagraph" font-family="Liberation Sans, sans-serif" font-size="353px" font-weight="400"><tspan class="TextPosition" x="1664" y="7765"><tspan fill="rgb(0,0,0)" stroke="none">0</tspan></tspan></tspan></text>
 <text class="TextShape"><tspan class="TextParagraph" font-family="Liberation Sans, sans-serif" font-size="353px" font-weight="400"><tspan class="TextPosition" x="3088" y="7765"><tspan fill="rgb(0,0,0)" stroke="none">10</tspan></tspan></tspan></text>
 <text class="TextShape"><tspan class="TextParagraph" font-family="Liberation Sans, sans-serif" font-size="353px" font-weight="400"><tspan class="TextPosition" x="4612" y="7765"><tspan fill="rgb(0,0,0)" stroke="none">20</tspan></tspan></tspan></text>
 <text class="TextShape"><tspan class="TextParagraph" font-family="Liberation Sans, sans-serif" font-size="353px" font-weight="400"><tspan class="TextPosition" x="6136" y="7765"><tspan fill="rgb(0,0,0)" stroke="none">30</tspan></tspan></tspan></text>
 <text class="TextShape"><tspan class="TextParagraph" font-family="Liberation Sans, sans-serif" font-size="353px" font-weight="400"><tspan class="TextPosition" x="7660" y="7765"><tspan fill="rgb(0,0,0)" stroke="none">40</tspan></tspan></tspan></text>
 <text class="TextShape"><tspan class="TextParagraph" font-family="Liberation Sans, sans-serif" font-size="353px" font-weight="400"><tspan class="TextPosition" x="9184" y="7765"><tspan fill="rgb(0,0,0)" stroke="none">50</tspan></tspan></tspan></text>
 <text class="TextShape"><tspan class="TextParagraph" font-family="Liberation Sans, sans-serif" font-size="353px" font-weight="400"><tspan class="TextPosition" x="10708" y="7765"><tspan fill="rgb(0,0,0)" stroke="none">60</tspan></tspan></tspan></text>
 <text class="TextShape"><tspan class="TextParagraph" font-family="Liberation Sans, sans-serif" font-size="353px" font-weight="400"><tspan class="TextPosition" x="12232" y="7765"><tspan fill="rgb(0,0,0)" stroke="none">70</tspan></tspan></tspan></text>
 <text class="TextShape"><tspan class="TextParagraph" font-family="Liberation Sans, sans-serif" font-size="353px" font-weight="400"><tspan class="TextPosition" x="13756" y="7765"><tspan fill="rgb(0,0,0)" stroke="none">80</tspan></tspan></tspan></text>
 <text class="TextShape"><tspan class="TextParagraph" font-family="Liberation Sans, sans-serif" font-size="353px" font-weight="400"><tspan class="TextPosition" x="15280" y="7765"><tspan fill="rgb(0,0,0)" stroke="none">90</tspan></tspan></tspan></text>
 <text class="TextShape"><tspan class="TextParagraph" font-family="Liberation Sans, sans-serif" font-size="353px" font-weight="400"><tspan class="TextPosition" x="1315" y="7306"><tspan fill="rgb(0,0,0)" stroke="none">0</tspan></tspan></tspan></text>
 <text class="TextShape"><tspan class="TextParagraph" font-family="Liberation Sans, sans-serif" font-size="353px" font-weight="400"><tspan class="TextPosition" x="1315" y="6498"><tspan fill="rgb(0,0,0)" stroke="none">1</tspan></tspan></tspan></text>
 <text class="TextShape"><tspan class="TextParagraph" font-family="Liberation Sans, sans-serif" font-size="353px" font-weight="400"><tspan class="TextPosition" x="1315" y="5691"><tspan fill="rgb(0,0,0)" stroke="none">2</tspan></tspan></tspan></text>
 <text class="TextShape"><tspan class="TextParagraph" font-family="Liberation Sans, sans-serif" font-size="353px" font-weight="400"><tspan class="TextPosition" x="1315" y="4884"><tspan fill="rgb(0,0,0)" stroke="none">3</tspan></tspan></tspan></text>
 <text class="TextShape"><tspan class="TextParagraph" font-family="Liberation Sans, sans-serif" font-size="353px" font-weight="400"><tspan class="TextPosition" x="1315" y="4077"><tspan fill="rgb(0,0,0)" stroke="none">4</tspan></tspan></tspan></text>
 <text class="TextShape"><tspan class="TextParagraph" font-family="Liberation Sans, sans-serif" font-size="353px" font-weight="400"><tspan class="TextPosition" x="1315" y="3270"><tspan fill="rgb(0,0,0)" stroke="none">5</tspan></tspan></tspan></text>
 <text class="TextShape"><tspan class="TextParagraph" font-family="Liberation Sans, sans-serif" font-size="353px" font-weight="400"><tspan class="TextPosition" x="1315" y="2463"><tspan fill="rgb(0,0,0)" stroke="none">6</tspan></tspan></tspan></text>
 <text class="TextShape"><tspan class="TextParagraph" font-family="Liberation Sans, sans-serif" font-size="353px" font-weight="400"><tspan class="TextPosition" x="1315" y="1656"><tspan fill="rgb(0,0,0)" stroke="none">7</tspan></tspan></tspan></text>
 <text class="TextShape"><tspan class="TextParagraph" font-family="Liberation Sans, sans-serif" font-size="459px" font-weight="400"><tspan class="TextPosition" x="6155" y="895"><tspan fill="rgb(0,0,0)" stroke="none">76Hz, 512 values</tspan></tspan></tspan></text>
 <text class="TextShape"><tspan class="TextParagraph" font-family="Liberation Sans, sans-serif" font-size="318px" font-weight="400"><tspan class="TextPosition" x="7801" y="8419"><tspan fill="rgb(0,0,0)" stroke="none">frequency</tspan></tspan></tspan></text>
 <text class="TextShape"><tspan class="TextParagraph" font-family="Liberation Sans, sans-serif" font-size="318px" font-weight="400"><tspan class="TextPosition" x="833" y="5329" transform="translate(833,5329) rotate(-90) translate(-833,-5329)"><tspan fill="rgb(0,0,0)" stroke="none">magnitude</tspan></tspan></tspan></text>
</svg>